<svg xmlns="http://www.w3.org/2000/svg" viewBox="0 0 63.58 53"><defs><style>.cls-1{fill:#fff;}</style></defs><g id="Layer_2" data-name="Layer 2"><g id="Layer_3" data-name="Layer 3"><path class="cls-1" d="M23,0A12.2,12.2,0,0,0,10.77,12.18v8.11a12.08,12.08,0,0,0,4.51,9.38A23.06,23.06,0,0,0,0,50.66a2.11,2.11,0,0,0,2,2l41.85.13a22.59,22.59,0,0,1-5.7-4.06L4.57,48.63A18.63,18.63,0,0,1,22.73,32.45l.22,0c.21,0,.4,0,.6-.06a18.49,18.49,0,0,1,9.68,3.16c-.09-1.46-.11-3-.13-4.69a26,26,0,0,0-2.6-1.11,12.14,12.14,0,0,0,4.62-9.48V12.18A12.19,12.19,0,0,0,23,0Zm0,4.06a8.06,8.06,0,0,1,8.12,8.12v8.11a8,8,0,0,1-7.45,8.05h0c-.37,0-.73,0-1.09,0a8,8,0,0,1-7.67-8.07V12.18A8.06,8.06,0,0,1,23,4.06ZM49.23,20.42l-1.12.85c-3.48,2.62-7.54,5.22-11.13,5.49l-1.88.14v1.88c0,6.86.28,11.58,2.27,15.41S43,50.43,48.51,52.68l.8.32.77-.34c5.36-2.31,9-4.38,11.05-8.12s2.45-8.54,2.45-16.2V26.6l-1.72-.26c-4.24-.65-7.38-2.56-11.44-5.16Zm.32,4.76a33.74,33.74,0,0,0,9.82,4.34c-.08,6.39-.48,10.7-1.79,13.06s-4,3.91-8.43,5.89c-4.45-1.92-6.89-3.65-8.18-6.15s-1.55-6.58-1.63-12.16A27.74,27.74,0,0,0,49.55,25.18Z"/></g></g></svg>