<svg xmlns="http://www.w3.org/2000/svg" viewBox="0 0 50.69 55"><defs><style>.cls-1{fill:#fff;}</style></defs><g id="Layer_2" data-name="Layer 2"><g id="Layer_3" data-name="Layer 3"><path class="cls-1" d="M25.38,13.12A14.38,14.38,0,1,0,39.77,27.5,14.44,14.44,0,0,0,25.38,13.12Zm0,25.94A11.56,11.56,0,1,1,37,27.5,11.61,11.61,0,0,1,25.38,39.06Z"/><path class="cls-1" d="M29.33,25.81a1.4,1.4,0,0,0-1.13,1.55v.14a2.82,2.82,0,1,1-2.82-2.82,2.41,2.41,0,0,1,1,.14,1.43,1.43,0,0,0,1-2.68,9.64,9.64,0,0,0-2-.28A5.64,5.64,0,1,0,31,27.5v-.56A1.46,1.46,0,0,0,29.33,25.81Z"/><path class="cls-1" d="M50.34,12.83a1.63,1.63,0,0,0-1.41-1.27c-5.92,0-11.84-3.1-11.84-10.15A1.33,1.33,0,0,0,35.68,0H15a1.28,1.28,0,0,0-1,.42,1.31,1.31,0,0,0-.42,1c0,7.05-5.93,10.15-11.85,10.15A1.41,1.41,0,0,0,.28,13h0A40.11,40.11,0,0,0,24.82,54.86c.14,0,.42.14.56.14a.87.87,0,0,0,.57-.14A39.92,39.92,0,0,0,50.34,12.83ZM25.38,52A37.22,37.22,0,0,1,3.1,14.38C10.58,14,15.79,9.31,16.36,2.82h18c.7,6.49,5.92,11.14,13.26,11.56A37.22,37.22,0,0,1,25.38,52Z"/></g></g></svg>