<svg xmlns="http://www.w3.org/2000/svg" viewBox="0 0 71.85 51.67"><defs><style>.cls-1{fill:#fff;}</style></defs><g id="Layer_2" data-name="Layer 2"><g id="Layer_9" data-name="Layer 9"><path class="cls-1" d="M71.85,17.07a3.05,3.05,0,0,0-3-3H48.24a3.05,3.05,0,0,0-3,3V34.54h0v14.1a3,3,0,0,0,1,2.28h0a2.87,2.87,0,0,0,.68.45h0l.11,0h0l.09,0,.06,0,.07,0,.07,0h.06l.09,0h0l.1,0h0a3.31,3.31,0,0,0,.55.05H68.82a3.31,3.31,0,0,0,.55-.05h0l.11,0h0l.08,0h.06l.07,0,.08,0,0,0,.09,0h0l.12,0h0a3.34,3.34,0,0,0,.68-.45h0a3,3,0,0,0,1-2.28V34.54h0V17.07ZM58.53,50.59a1.37,1.37,0,1,1,1.37-1.37A1.36,1.36,0,0,1,58.53,50.59Zm10.62-5.43a1.32,1.32,0,0,1-1.33,1.33H49.24a1.33,1.33,0,0,1-1.33-1.33V18.71a1.33,1.33,0,0,1,1.33-1.33H67.82a1.32,1.32,0,0,1,1.33,1.33V45.16ZM51.7,0H4.05A4.06,4.06,0,0,0,0,4.06V18.71H0V40H0a3.59,3.59,0,0,0,3.57,3.44H21.66c0,.8-.48,4.45-5.91,5.13h.17a1.56,1.56,0,0,0,0,3.11H39.83a1.56,1.56,0,1,0,0-3.11H40c-5.44-.68-5.88-4.33-5.92-5.13h8.46V34.72H4.05A.71.71,0,0,1,3.34,34V4.06a.71.71,0,0,1,.71-.71H51.7a.71.71,0,0,1,.71.71v7.3h3.35V4.06A4.06,4.06,0,0,0,51.7,0ZM27.88,37.44a2,2,0,1,1-2,2A2,2,0,0,1,27.88,37.44Z"/></g></g></svg>