<svg xmlns="http://www.w3.org/2000/svg" viewBox="0 0 50.38 51"><defs><style>.cls-1{fill:#fff;stroke:#fff;stroke-miterlimit:10;}</style></defs><g id="Layer_2" data-name="Layer 2"><g id="Layer_15" data-name="Layer 15"><path class="cls-1" d="M7,17.15A1.28,1.28,0,0,0,7,19.7H36.26a1.28,1.28,0,1,0,0-2.55Z"/><path class="cls-1" d="M23.12,40.85H13V34.6A3.67,3.67,0,0,0,9.3,30.92H3.05V9.24A1.12,1.12,0,0,1,4.17,8.12H8.56v1.93a2.65,2.65,0,0,0,2.64,2.64h3.46a2.64,2.64,0,0,0,2.64-2.64V8.12H26v1.93a2.66,2.66,0,0,0,2.65,2.64h3.45a2.64,2.64,0,0,0,2.64-2.64V8.12H39.1a1.12,1.12,0,0,1,1.12,1.12V23.13a1.28,1.28,0,0,0,2.56,0V9.24A3.67,3.67,0,0,0,39.1,5.57H34.71V3.14A2.64,2.64,0,0,0,32.09.5H28.63A2.64,2.64,0,0,0,26,3.14V5.57H17.32V3.14A2.65,2.65,0,0,0,14.66.5H11.2A2.64,2.64,0,0,0,8.56,3.14V5.57H4.17A3.67,3.67,0,0,0,.5,9.24h0V32.79a1.28,1.28,0,0,0,.37.9L10.21,43a1.31,1.31,0,0,0,.9.37h12a1.28,1.28,0,1,0,0-2.55ZM28.54,3.14a.09.09,0,0,1,.09-.09h3.46a.09.09,0,0,1,.09.09h0v6.91a.09.09,0,0,1-.09.09H28.63a.09.09,0,0,1-.09-.09h0Zm-17.43,0a.09.09,0,0,1,.09-.09h3.46a.09.09,0,0,1,.09.09h0v6.91a.09.09,0,0,1-.09.09H11.2a.09.09,0,0,1-.09-.09h0ZM4.28,33.48h5a1.12,1.12,0,0,1,1.12,1.12v5Z"/><path class="cls-1" d="M38.14,27A11.74,11.74,0,1,0,49.88,38.77,11.73,11.73,0,0,0,38.14,27Zm0,20.92a9.19,9.19,0,1,1,9.19-9.18A9.18,9.18,0,0,1,38.14,48Z"/><path class="cls-1" d="M43.05,37.48h0l-3.65,0v-4a1.28,1.28,0,1,0-2.55,0V38.8a1.27,1.27,0,0,0,1.28,1.27h0l4.93,0a1.28,1.28,0,0,0,0-2.56Z"/></g></g></svg>