<svg xmlns="http://www.w3.org/2000/svg" viewBox="0 0 71.15 67.41"><defs><style>.cls-1{fill:#fff;stroke:#fff;stroke-miterlimit:10;}</style></defs><g id="Layer_2" data-name="Layer 2"><g id="Layer_13" data-name="Layer 13"><path class="cls-1" d="M33.71,66.91a33.21,33.21,0,1,1,13-63.78A2.08,2.08,0,0,1,45.06,7a28.79,28.79,0,0,0-11.35-2.3A29.05,29.05,0,1,0,45.06,60.45a2.08,2.08,0,0,1,1.62,3.83A32.9,32.9,0,0,1,33.71,66.91Z"/><path class="cls-1" d="M64.2,36.93H32.61a2.77,2.77,0,1,1,0-5.54H64.2a2.77,2.77,0,1,1,0,5.54Z"/><path class="cls-1" d="M53.25,53.11a2.77,2.77,0,0,1-2.12-4.56l12.2-14.44L51.09,18.8a2.77,2.77,0,0,1,4.33-3.46L70.5,34.21,55.37,52.13A2.76,2.76,0,0,1,53.25,53.11Z"/></g></g></svg>