<svg xmlns="http://www.w3.org/2000/svg" viewBox="0 0 67.89 43"><defs><style>.cls-1{fill:#fff;}</style></defs><g id="Layer_2" data-name="Layer 2"><g id="Layer_3" data-name="Layer 3"><path class="cls-1" d="M15.84,18.11a9.06,9.06,0,1,1,9.05-9.06A9.06,9.06,0,0,1,15.84,18.11Zm0-13.58a4.53,4.53,0,1,0,4.53,4.52A4.52,4.52,0,0,0,15.84,4.53ZM29.42,43H2.26A2.26,2.26,0,0,1,0,40.74V31.68A11.31,11.31,0,0,1,11.32,20.37h9.05A11.31,11.31,0,0,1,31.68,31.68v9.06A2.26,2.26,0,0,1,29.42,43ZM4.53,38.47H27.16V31.68a6.79,6.79,0,0,0-6.79-6.79h-9a6.79,6.79,0,0,0-6.79,6.79ZM67.89,15.84a2.26,2.26,0,0,0-2.26-2.26H38.47a2.27,2.27,0,0,0,0,4.53H65.63A2.27,2.27,0,0,0,67.89,15.84Zm0,9.05a2.26,2.26,0,0,0-2.26-2.26H38.47a2.27,2.27,0,0,0,0,4.53H65.63A2.27,2.27,0,0,0,67.89,24.89ZM54.32,34a2.27,2.27,0,0,0-2.27-2.27H38.47a2.27,2.27,0,0,0,0,4.53H52.05A2.27,2.27,0,0,0,54.32,34Z"/></g></g></svg>