<svg xmlns="http://www.w3.org/2000/svg" viewBox="0 0 51.89 59.82"><defs><style>.cls-1{fill:none;stroke:#fff;stroke-linecap:round;stroke-linejoin:round;stroke-width:5px;}</style></defs><g id="Layer_2" data-name="Layer 2"><g id="Layer_2-2" data-name="Layer 2"><path class="cls-1" d="M42.17,57.32H9.71A7.24,7.24,0,0,1,2.5,50.11V24.86a7.23,7.23,0,0,1,7.21-7.21H42.17a7.23,7.23,0,0,1,7.22,7.21V50.11A7.24,7.24,0,0,1,42.17,57.32Z"/><path class="cls-1" d="M42.17,17.65a16.27,16.27,0,0,0-32.46,0"/><path class="cls-1" d="M25.94,44.7h0a3.62,3.62,0,0,1-3.6-3.61V33.88a3.61,3.61,0,0,1,3.6-3.61h0a3.61,3.61,0,0,1,3.61,3.61v7.21A3.62,3.62,0,0,1,25.94,44.7Z"/></g></g></svg>