<svg xmlns="http://www.w3.org/2000/svg" viewBox="0 0 71 93.42"><defs><style>.cls-1{fill:#00aceb;stroke:#00aceb;stroke-miterlimit:10;}</style></defs><g id="Layer_2" data-name="Layer 2"><g id="Layer_13" data-name="Layer 13"><path class="cls-1" d="M70.07,61.1a5.7,5.7,0,0,0-5.34-3.31,8,8,0,0,0-5.19,2.08l-.76.67c-3.05,2.71-8.73,7.74-15.55,9.81a10.14,10.14,0,0,1-2.87.46,6.36,6.36,0,0,1-5-2.25c2.12-1.13,6-3.21,8.85-4.76a4.62,4.62,0,0,0,2.13-5.32c-.78-3.08-4-4.75-7.72-3.87-1.55.37-3.37.73-5.27,1.12-5.63,1.16-11.45,2.35-14,4a28.67,28.67,0,0,0-5.27,4.86,4.36,4.36,0,0,0-3.24-1.46h-6A4.38,4.38,0,0,0,.5,67.52V87a4.37,4.37,0,0,0,4.37,4.37h6a4.36,4.36,0,0,0,3.68-2c3.82.94,15.15,3.61,21.5,3.61h0c.63,0,1.21,0,1.73-.07,7.12-.76,23.42-17.12,30.09-24.13C70.29,66.23,71.08,63.45,70.07,61.1ZM10.9,88.16h-6A1.19,1.19,0,0,1,3.68,87V67.51a1.19,1.19,0,0,1,1.19-1.19h6a1.19,1.19,0,0,1,1.18,1.19V87A1.19,1.19,0,0,1,10.9,88.16ZM65.61,66.52C55.74,76.88,42.45,89.15,37.49,89.68c-.42,0-.89.06-1.4.06h0c-5.95,0-17.15-2.64-20.82-3.55v-18a31,31,0,0,1,5.88-5.77c2.05-1.33,8.07-2.57,12.91-3.56,1.92-.39,3.77-.77,5.35-1.15a6.24,6.24,0,0,1,1.31-.16,2.39,2.39,0,0,1,2.6,1.73A1.5,1.5,0,0,1,42.74,61c-4.1,2.24-10.35,5.56-10.35,5.56a1.58,1.58,0,0,0-.71,2.05A9.59,9.59,0,0,0,40.37,74a13,13,0,0,0,3.79-.6c7.48-2.26,13.5-7.6,16.73-10.46l.74-.65a4.67,4.67,0,0,1,3.1-1.3,2.51,2.51,0,0,1,2.41,1.38C67.63,63.48,67.07,65,65.61,66.52Z"/><path class="cls-1" d="M43.49,49.33A24.42,24.42,0,1,0,19.07,24.92,24.44,24.44,0,0,0,43.49,49.33Zm0-45.65A21.24,21.24,0,1,1,22.25,24.92,21.26,21.26,0,0,1,43.49,3.68Z"/><path class="cls-1" d="M37,32.5l-1,2.32a21.45,21.45,0,0,0,6.23,1.69v2.57h2.51v-2.6a7.74,7.74,0,0,0,4.07-1.57,5.49,5.49,0,0,0,2-5.29c-.56-2.56-3.14-4.3-6-5.71v-8A18.74,18.74,0,0,1,50,17.27L51,15a20.37,20.37,0,0,0-6.26-1.55V10.76H42.24V13.5a7.69,7.69,0,0,0-1.5.31,5.71,5.71,0,0,0-.65,10.74l.58.26,1.57.69V34A20,20,0,0,1,37,32.5Zm4.69-10-.57-.25a3.21,3.21,0,0,1,.38-6.05c.25-.07.51-.1.76-.15v6.7Zm6.65,7.66A3,3,0,0,1,47.21,33a5,5,0,0,1-2.46,1V26.75C46.56,27.74,48,28.87,48.32,30.16Z"/></g></g></svg>