<svg xmlns="http://www.w3.org/2000/svg" viewBox="0 0 31.59 55"><defs><style>.cls-1{fill:#fff;}</style></defs><g id="Layer_2" data-name="Layer 2"><g id="Layer_15" data-name="Layer 15"><path class="cls-1" d="M31.59,5.74A5.75,5.75,0,0,0,25.84,0H5.74A5.74,5.74,0,0,0,0,5.74V49.26A5.74,5.74,0,0,0,5.74,55h20.1a5.75,5.75,0,0,0,5.75-5.74ZM2.65,9.94H28.94V42.08H2.65Zm23.2,42.41H5.73a3.11,3.11,0,0,1-3.08-3.12v-4.5H28.94v4.5A3.11,3.11,0,0,1,25.85,52.35ZM28.94,5.77V7.29H2.65V5.77A3.11,3.11,0,0,1,5.73,2.65H25.85A3.11,3.11,0,0,1,28.94,5.77Z"/><path class="cls-1" d="M18.49,47.27H13.1a1.33,1.33,0,1,0,0,2.65h5.39a1.33,1.33,0,0,0,0-2.65Z"/></g></g></svg>