<svg xmlns="http://www.w3.org/2000/svg" viewBox="0 0 69.82 71.97"><defs><style>.cls-1{fill:#00aceb;}</style></defs><g id="Layer_2" data-name="Layer 2"><g id="Layer_5" data-name="Layer 5"><path class="cls-1" d="M68.39,7.81a1.71,1.71,0,0,0-1.28-.93,1.69,1.69,0,0,0-1.49.53L59.8,13.8,55.68,10,61.5,3.65a1.73,1.73,0,0,0,.39-1.54,1.71,1.71,0,0,0-1-1.19A14,14,0,0,0,42.62,18.48L33.91,28a19.13,19.13,0,0,0-3.06-1l-.15-4.74A1.69,1.69,0,0,0,29,20.68l-6.68.2a1.71,1.71,0,0,0-1.18.54,1.68,1.68,0,0,0-.46,1.21l.15,4.75a19.14,19.14,0,0,0-5.09,2.35l-3.51-3.2a1.69,1.69,0,0,0-2.39.11L5.3,31.59a1.7,1.7,0,0,0-.44,1.22A1.68,1.68,0,0,0,5.41,34l3.51,3.2a19.23,19.23,0,0,0-1.73,4.7l-5.55.17A1.7,1.7,0,0,0,0,43.8l.21,6.68a1.69,1.69,0,0,0,.53,1.19A1.74,1.74,0,0,0,2,52.13L7.5,52a19.32,19.32,0,0,0,2.35,5.12l-3.19,3.5A1.69,1.69,0,0,0,6.77,63l4.94,4.51a1.69,1.69,0,0,0,2.39-.11l3.2-3.51A19.51,19.51,0,0,0,22,65.58l.15,4.74a1.69,1.69,0,0,0,.53,1.19,1.71,1.71,0,0,0,1.16.46h.05l6.68-.21A1.69,1.69,0,0,0,32.18,70L32,65.27a19.64,19.64,0,0,0,5.09-2.36l3.51,3.2a1.7,1.7,0,0,0,1.21.44A1.72,1.72,0,0,0,43,66l4.49-5a1.69,1.69,0,0,0-.11-2.39l-3.5-3.2a19.23,19.23,0,0,0,1.73-4.7l4.74-.14a1.71,1.71,0,0,0,1.18-.54A1.68,1.68,0,0,0,52,48.87l-.21-6.69a1.69,1.69,0,0,0-1.74-1.64l-4.74.15A19.36,19.36,0,0,0,44,37.38l8.85-9.72a13.63,13.63,0,0,0,3,.33h0A14,14,0,0,0,68.39,7.81ZM44.08,44.12l4.4-.14.1,3.3-4.4.14a1.7,1.7,0,0,0-1.62,1.43,16.08,16.08,0,0,1-2.23,6.06,1.69,1.69,0,0,0,.3,2.14l3.25,3-2.22,2.44-3.25-3a1.68,1.68,0,0,0-2.16-.1,16.31,16.31,0,0,1-6.31,2.91A1.69,1.69,0,0,0,28.61,64l.14,4.4-3.3.1-.13-4.4a1.69,1.69,0,0,0-1.43-1.62,16.18,16.18,0,0,1-6-2.24,1.7,1.7,0,0,0-2.14.3l-3,3.27L10.3,61.6l3-3.25a1.71,1.71,0,0,0,.09-2.17,16.33,16.33,0,0,1-2.91-6.33,1.69,1.69,0,0,0-1.7-1.33l-5.21.16-.1-3.3,5.2-.16a1.68,1.68,0,0,0,1.62-1.43,16.27,16.27,0,0,1,2.24-6.06,1.69,1.69,0,0,0-.3-2.14l-3.26-3,2.22-2.44,3.26,3a1.68,1.68,0,0,0,2.16.1,16.18,16.18,0,0,1,6.31-2.91,1.68,1.68,0,0,0,1.32-1.71l-.13-4.4,3.29-.1.14,4.4a1.68,1.68,0,0,0,1.43,1.62,17.32,17.32,0,0,1,2.51.6l-3.1,3.41a12.23,12.23,0,0,0-2.1-.18,12.53,12.53,0,1,0,12.5,12,13.61,13.61,0,0,0-.34-2.4l3.13-3.43a17.16,17.16,0,0,1,.84,2.69A1.69,1.69,0,0,0,44.08,44.12ZM23.54,42l7.65,7a1.7,1.7,0,0,0,2.39-.11l1.79-2a9.13,9.13,0,0,1-15.28,6.39,9.15,9.15,0,0,1,5.3-15.86l-2,2.15A1.7,1.7,0,0,0,23,40.77,1.72,1.72,0,0,0,23.54,42ZM63.67,21.14a10.54,10.54,0,0,1-10.89,3,1.69,1.69,0,0,0-1.73.48L32.22,45.29l-5.15-4.71L45.82,20a1.67,1.67,0,0,0,.3-1.81A10.61,10.61,0,0,1,55.86,3.39a10.14,10.14,0,0,1,1.23.07L52,9a1.69,1.69,0,0,0,.11,2.39l6.62,6a1.7,1.7,0,0,0,1.22.44,1.68,1.68,0,0,0,1.17-.55l5.06-5.55A10.57,10.57,0,0,1,63.67,21.14Z"/></g></g></svg>