<svg xmlns="http://www.w3.org/2000/svg" viewBox="0 0 72.1 73"><defs><style>.cls-1{fill:#fff;stroke:#fff;stroke-miterlimit:10;}</style></defs><g id="Layer_2" data-name="Layer 2"><g id="Layer_17" data-name="Layer 17"><path class="cls-1" d="M9.9,24.48a1.84,1.84,0,0,0,0,3.67H52a1.84,1.84,0,1,0,0-3.67Z"/><path class="cls-1" d="M33.08,58.61H18.46v-9a5.29,5.29,0,0,0-5.29-5.29h-9V13.09a1.62,1.62,0,0,1,1.62-1.62h6.32v2.78a3.8,3.8,0,0,0,3.8,3.8h5a3.8,3.8,0,0,0,3.8-3.8V11.47H37.18v2.78A3.81,3.81,0,0,0,41,18.05h5a3.81,3.81,0,0,0,3.81-3.8V11.47h6.32a1.61,1.61,0,0,1,1.61,1.62v20a1.84,1.84,0,0,0,3.68,0v-20A5.29,5.29,0,0,0,56.09,7.8H49.77V4.31A3.82,3.82,0,0,0,46,.5H41a3.81,3.81,0,0,0-3.8,3.81V7.8H24.72V4.31A3.82,3.82,0,0,0,20.9.5h-5a3.81,3.81,0,0,0-3.8,3.81V7.8H5.79A5.29,5.29,0,0,0,.5,13.09h0V47A1.81,1.81,0,0,0,1,48.29L14.48,61.74a1.86,1.86,0,0,0,1.3.53h17.3a1.84,1.84,0,0,0,0-3.67Zm7.79-54.3A.13.13,0,0,1,41,4.17h5a.14.14,0,0,1,.14.14h0v9.94a.13.13,0,0,1-.14.13H41a.13.13,0,0,1-.13-.13h0Zm-25.1,0a.14.14,0,0,1,.14-.14h5a.13.13,0,0,1,.13.14h0v9.94a.13.13,0,0,1-.13.13h-5a.13.13,0,0,1-.13-.13h0ZM5.94,48h7.25a1.61,1.61,0,0,1,1.61,1.62v7.24Z"/><path class="cls-1" d="M54.71,38.7A16.9,16.9,0,1,0,71.6,55.6,16.9,16.9,0,0,0,54.71,38.7Zm0,30.13A13.23,13.23,0,1,1,67.93,55.6,13.23,13.23,0,0,1,54.71,68.83Z"/><path class="cls-1" d="M61.77,53.76h0l-5.25,0V48a1.84,1.84,0,0,0-3.67,0v7.62a1.83,1.83,0,0,0,1.83,1.83h0l7.11,0a1.84,1.84,0,0,0,0-3.67Z"/></g></g></svg>