<svg xmlns="http://www.w3.org/2000/svg" viewBox="0 0 70 68.61"><defs><style>.cls-1{fill:#00aceb;}</style></defs><g id="Layer_2" data-name="Layer 2"><g id="Layer_13" data-name="Layer 13"><path class="cls-1" d="M68.83,24.47l-5.08-5.09a4.1,4.1,0,0,0-5.83,0L22.77,54.53a3.93,3.93,0,0,0-1,1.85l-2,7.37a3.87,3.87,0,0,0,3.76,4.86,4.58,4.58,0,0,0,1-.15l7.37-2a5.64,5.64,0,0,0,1.84-1L68.9,30.29A4.3,4.3,0,0,0,68.83,24.47ZM53.06,29.55l5.6,5.6L35.52,58.29l-5.6-5.6ZM31,62.79c-.08.07-.08.07-.15.07l-7.52,1.92,2.06-7.59,1.85-1.85,5.6,5.6ZM66.1,27.64l-4.79,4.79-5.6-5.61L60.5,22a.29.29,0,0,1,.22-.07c.08,0,.22,0,.22.07L66,27.12A.32.32,0,0,1,66.1,27.64Z"/><path class="cls-1" d="M23.73,47.16a1.84,1.84,0,0,0-1.33-2.28,17.84,17.84,0,0,1-4.71-2,1.88,1.88,0,0,0-2.14.15l-3.17,2.43L8.84,41.93l2.44-3.17a1.89,1.89,0,0,0,.14-2.13,17.49,17.49,0,0,1-2.06-5,1.91,1.91,0,0,0-1.62-1.4l-4-.51v-5l4-.52a1.88,1.88,0,0,0,1.62-1.4,17.43,17.43,0,0,1,2.06-5,1.9,1.9,0,0,0-.14-2.14L8.84,12.45l3.54-3.53,3.17,2.43a2.06,2.06,0,0,0,2.14.15,17.34,17.34,0,0,1,5-2.07,1.91,1.91,0,0,0,1.4-1.62l.51-4h5l.52,4a1.88,1.88,0,0,0,1.4,1.62,17.45,17.45,0,0,1,5,2.07,1.79,1.79,0,0,0,2.14-.15l3.17-2.43,3.54,3.53L43,15.62a1.9,1.9,0,0,0-.14,2.14,17.15,17.15,0,0,1,2,4.72,1.87,1.87,0,0,0,3.61-1A24.72,24.72,0,0,0,46.65,17l2.06-2.73a3,3,0,0,0-.22-4L43.92,5.67A2.87,2.87,0,0,0,40,5.45L37.29,7.59A28.56,28.56,0,0,0,33.6,6l-.44-3.46A3,3,0,0,0,30.21,0H23.8a3,3,0,0,0-2.94,2.58L20.41,6a18.11,18.11,0,0,0-3.68,1.55L14,5.53a3,3,0,0,0-4,.22L5.45,10.32a2.92,2.92,0,0,0-.22,3.9L7.37,17a27.63,27.63,0,0,0-1.55,3.68L2.58,21A3,3,0,0,0,0,24v6.41a3,3,0,0,0,2.58,3L6,33.75a17.64,17.64,0,0,0,1.55,3.69L5.38,40.16a3,3,0,0,0,.22,3.91l4.57,4.57a3,3,0,0,0,2.14.88,3,3,0,0,0,1.84-.66l2.73-2.14a22.26,22.26,0,0,0,4.56,1.77A1.91,1.91,0,0,0,23.73,47.16Z"/><path class="cls-1" d="M37.51,32.28A1.89,1.89,0,0,0,39.87,31a13.55,13.55,0,0,0,.59-3.91,13.54,13.54,0,1,0-9.58,12.75A1.83,1.83,0,0,0,32.35,38a1.87,1.87,0,0,0-2.43-1.77,9.4,9.4,0,0,1-2.8.44,9.51,9.51,0,1,1,9.58-9.51,11.67,11.67,0,0,1-.37,2.8A1.79,1.79,0,0,0,37.51,32.28Z"/></g></g></svg>