<svg xmlns="http://www.w3.org/2000/svg" viewBox="0 0 66.5 71.97"><defs><style>.cls-1{fill:#00aceb;}</style></defs><g id="Layer_2" data-name="Layer 2"><g id="Layer_5" data-name="Layer 5"><path class="cls-1" d="M64.35,1.75h0c-3.16-3.17-9.42-2-18.61,3.38a33.27,33.27,0,0,0-41,47.92C.06,61.45-.8,67.22,2.18,70.21h0A6.44,6.44,0,0,0,6.92,72c3.42,0,8.06-1.72,13.86-5.13a33,33,0,0,0,12.47,2.44A33.29,33.29,0,0,0,61.8,18.94C66.47,10.53,67.33,4.75,64.35,1.75ZM61.41,4.69h0c.8.81,1,3.87-2.29,10.41a33.56,33.56,0,0,0-8.88-7.73C57.3,3.63,60.57,3.85,61.41,4.69ZM5.12,67.28h0c-.8-.81-1-3.87,2.27-10.39a33.64,33.64,0,0,0,8.88,7.71C9.22,68.33,6,68.11,5.12,67.28ZM33.25,63A27,27,0,0,1,10.79,51,142.37,142.37,0,0,1,27,30.73v7.33h4.16V23.49H16.62v4.17H24.2A151.92,151.92,0,0,0,8.53,46.88,27,27,0,0,1,55.72,21,142,142,0,0,1,39.48,41.27V33.9H35.33V48.47H49.87V44.31H42.33A152.93,152.93,0,0,0,58,25.12,27.05,27.05,0,0,1,33.25,63Z"/></g></g></svg>