<svg xmlns="http://www.w3.org/2000/svg" viewBox="0 0 50.79 55"><defs><style>.cls-1{fill:#fff;}</style></defs><g id="Layer_2" data-name="Layer 2"><g id="Layer_2-2" data-name="Layer 2"><path class="cls-1" d="M25.46,32.37A16.19,16.19,0,1,1,41.61,16.15,16.17,16.17,0,0,1,25.46,32.37Zm0-26.85a10.66,10.66,0,1,0,10.7,10.63A10.7,10.7,0,0,0,25.46,5.52Z"/><path class="cls-1" d="M48.17,55a2.77,2.77,0,0,1-2.76-2.76,19.95,19.95,0,0,0-39.89,0,2.76,2.76,0,1,1-5.52,0,25.4,25.4,0,1,1,50.79,0A2.61,2.61,0,0,1,48.17,55Z"/></g></g></svg>