<svg xmlns="http://www.w3.org/2000/svg" viewBox="0 0 75.45 71.5"><defs><style>.cls-1,.cls-2{fill:#00aceb;}.cls-1{stroke:#00aceb;stroke-miterlimit:10;}</style></defs><g id="Layer_2" data-name="Layer 2"><g id="Layer_5" data-name="Layer 5"><path class="cls-1" d="M48.72,22.21,47,22c-1.4-.14-2.72-.28-4-.51a34.16,34.16,0,0,1-13.57-5.84,4.42,4.42,0,0,0-5.12-.13l-.49.31c-1.14.74-2.23,1.43-3.33,2A38.35,38.35,0,0,1,4.77,22.18,4.23,4.23,0,0,0,.51,26.65q0,1.2,0,2.4V30.2a60.66,60.66,0,0,0,1,10.68A42.6,42.6,0,0,0,7.31,55.79,40.06,40.06,0,0,0,24.7,70.61a4.6,4.6,0,0,0,1.89.39,4.52,4.52,0,0,0,2.23-.56,44.8,44.8,0,0,0,19-20.21c3.15-6.83,4.76-14.57,4.89-23.72A4.18,4.18,0,0,0,48.72,22.21ZM44.59,48.75A41.09,41.09,0,0,1,27.07,67.38a1.22,1.22,0,0,1-.92,0A36.33,36.33,0,0,1,10.29,53.91,39.24,39.24,0,0,1,5,40.2,57.41,57.41,0,0,1,4,30.15C4,29,4,27.87,4,26.72c0-.87.15-1,1-1A42.37,42.37,0,0,0,22.1,21c1.38-.75,2.72-1.61,4-2.47a.9.9,0,0,1,1.17,0,38,38,0,0,0,15,6.45c2,.36,4,.5,6,.73.52.05.84.18.84.8C49.05,34.22,47.86,41.7,44.59,48.75Z"/><path class="cls-1" d="M36.7,32.14a2.46,2.46,0,0,0-1.75.74c-1.73,1.71-3.87,3.77-6,5.76s-4.37,4.2-6.17,6h0l-.08-.08L18.27,40a2.36,2.36,0,0,0-1.94-.77,2.41,2.41,0,0,0-1.49,4.14c2.36,2.39,3.88,3.92,6.26,6.29a2.55,2.55,0,0,0,.95.6,2.67,2.67,0,0,0,.82.14h0a2.55,2.55,0,0,0,1.81-.82c2-2,4.51-4.41,6.9-6.71s4.74-4.57,6.73-6.54l.17-.18a2.44,2.44,0,0,0,.25-2.89A2.39,2.39,0,0,0,36.7,32.14Z"/><path class="cls-2" d="M37.41.67a2.6,2.6,0,0,0-.22,2.6,2.13,2.13,0,0,0,2.24,1.22A29.76,29.76,0,0,1,48.11,5,29.19,29.19,0,0,1,71,30.06c0,.36.07.72.13,1.08a2.16,2.16,0,0,0,2.36,1.92,2.13,2.13,0,0,0,2-2.41,32.34,32.34,0,0,0-2.36-9.83A33.55,33.55,0,0,0,39.52.09,11.85,11.85,0,0,0,37.41.67Z"/><path class="cls-2" d="M40.23,15a12.23,12.23,0,0,0,2.07.27A16.71,16.71,0,0,1,59.94,30a3.89,3.89,0,0,0,.88,2,1.87,1.87,0,0,0,2.32.28A2.08,2.08,0,0,0,64.33,30a19.85,19.85,0,0,0-4-10.56A20.7,20.7,0,0,0,41.73,11a2.16,2.16,0,0,0-2.13,1.57A2.54,2.54,0,0,0,40.23,15Z"/></g></g></svg>