<svg xmlns="http://www.w3.org/2000/svg" viewBox="0 0 70 99.52"><defs><style>.cls-1{fill:#00aceb;}</style></defs><g id="Layer_2" data-name="Layer 2"><g id="Layer_13" data-name="Layer 13"><path class="cls-1" d="M69.12,14.12a48.28,48.28,0,0,0-68.24,0A3,3,0,0,0,0,16.27a3,3,0,0,0,3,3H3a2.93,2.93,0,0,0,2.15-.86,42.21,42.21,0,0,1,59.66,0,3,3,0,0,0,4.29-4.29Z"/><path class="cls-1" d="M35,14.25A35.08,35.08,0,0,0,10,24.6a3,3,0,0,0,2.15,5.15h0a3,3,0,0,0,2.14-.88,29.3,29.3,0,0,1,41.4,0,3.08,3.08,0,0,0,4.29,0,3,3,0,0,0,0-4.27A35.08,35.08,0,0,0,35,14.25Z"/><path class="cls-1" d="M35,28.49a22.24,22.24,0,0,0-15.85,6.57,3,3,0,0,0,2.06,5.15h.08a3,3,0,0,0,2.14-.86,16.34,16.34,0,0,1,23.1,0l0,0a3,3,0,0,0,5.16-2.15,3,3,0,0,0-.88-2.14A22.24,22.24,0,0,0,35,28.49Z"/><path class="cls-1" d="M48.37,63.25V57.52a13.15,13.15,0,1,0-26.28-.92c0,.31,0,.61,0,.92v5.73a7,7,0,0,0-6.29,7v9.29a19.45,19.45,0,1,0,38.89,1.12c0-.37,0-.74,0-1.12V70.22A7,7,0,0,0,48.37,63.25ZM26.89,57.52a8.35,8.35,0,1,1,16.68-.73c0,.24,0,.49,0,.73v5.66H26.89Zm23,22a14.65,14.65,0,0,1-29.29,1c0-.32,0-.64,0-1V70.22a2.23,2.23,0,0,1,1.5-2.11h0l4.8-.15H43.61l4.79.15h0a2.26,2.26,0,0,1,1.51,2.11Z"/><path class="cls-1" d="M35.22,75.21a3.64,3.64,0,0,0-3.63,3.63h0a3.6,3.6,0,0,0,1.23,2.71v3a2.4,2.4,0,0,0,4.8,0v-3a3.57,3.57,0,0,0,1.24-2.71,3.64,3.64,0,0,0-3.64-3.63Z"/></g></g></svg>