<svg xmlns="http://www.w3.org/2000/svg" viewBox="0 0 63.61 71.97"><defs><style>.cls-1{fill:#00aceb;}</style></defs><g id="Layer_2" data-name="Layer 2"><g id="Layer_5" data-name="Layer 5"><path class="cls-1" d="M52.49,0H11A11,11,0,0,0,0,11.06V60.91A11.07,11.07,0,0,0,11,72H52.57a11.07,11.07,0,0,0,11-11.06V11.06A11.13,11.13,0,0,0,52.49,0Zm4.77,60.91a4.75,4.75,0,0,1-4.77,4.77H11a4.75,4.75,0,0,1-4.76-4.77V11.06A4.75,4.75,0,0,1,11,6.29H52.57a4.75,4.75,0,0,1,4.76,4.77V60.91Z"/><path class="cls-1" d="M19.06,17.73h-1a3.18,3.18,0,1,0,0,6.36h1a3.18,3.18,0,0,0,0-6.36Z"/><path class="cls-1" d="M19.06,32.8h-1a3.18,3.18,0,1,0,0,6.36h1a3.18,3.18,0,1,0,0-6.36Z"/><path class="cls-1" d="M19.06,47.88h-1a3.18,3.18,0,1,0,0,6.36h1a3.18,3.18,0,0,0,0-6.36Z"/><path class="cls-1" d="M45.53,17.73H29.65a3.18,3.18,0,0,0,0,6.36H45.53a3.18,3.18,0,0,0,0-6.36Z"/><path class="cls-1" d="M45.53,32.8H29.65a3.18,3.18,0,0,0,0,6.36H45.53a3.18,3.18,0,1,0,0-6.36Z"/><path class="cls-1" d="M45.53,47.88H29.65a3.18,3.18,0,0,0,0,6.36H45.53a3.18,3.18,0,0,0,0-6.36Z"/></g></g></svg>