<svg xmlns="http://www.w3.org/2000/svg" viewBox="0 0 71.68 71.97"><defs><style>.cls-1{fill:#fff;}</style></defs><g id="Layer_2" data-name="Layer 2"><g id="Layer_5" data-name="Layer 5"><path class="cls-1" d="M68.09,32.38a3.57,3.57,0,0,1-2.19-.76L35.76,8.16,5.61,31.62a3.59,3.59,0,0,1-4.38-5.68L33.56.75A3.59,3.59,0,0,1,38,.75L70.28,25.94a3.6,3.6,0,0,1-2.19,6.44Z"/><path class="cls-1" d="M50.13,72H21.38A10.8,10.8,0,0,1,10.6,61.17V39.58a3.6,3.6,0,1,1,7.19,0V61.17a3.6,3.6,0,0,0,3.59,3.6H50.13a3.6,3.6,0,0,0,3.59-3.6V39.58a3.6,3.6,0,1,1,7.19,0V61.17A10.8,10.8,0,0,1,50.13,72Z"/></g></g></svg>