<svg xmlns="http://www.w3.org/2000/svg" viewBox="0 0 620.79 104.2"><defs><style>.cls-1{fill:#fff;}.cls-2{fill:#fe0000;}.cls-3{fill:none;stroke:#fe0000;stroke-miterlimit:10;stroke-width:3px;}</style></defs><g id="Layer_2" data-name="Layer 2"><g id="Layer_2-2" data-name="Layer 2"><path class="cls-1" d="M89.29,103H74.11L59.64,52.14q-.93-3.31-2.33-9.6c-.94-4.18-1.5-7.09-1.7-8.72q-.59,3.74-1.89,9.69c-.88,4-1.61,6.92-2.19,8.87L37.41,103H22.23l-11-42.72L0,17.71H14.24l12.2,49.72q2.85,12,4.08,21.13.64-5,1.93-11.09t2.33-9.92L48.67,17.71H62.5L76.74,67.78a188.32,188.32,0,0,1,4.32,20.78,151.52,151.52,0,0,1,4.2-21.24L97.4,17.71h14.12Z"/><path class="cls-1" d="M178.92,103H165.15V63.35q0-7.47-3-11.15t-9.54-3.67q-8.64,0-12.69,5.16T135.85,71v32H122.14V12.23h13.71V35.28a106.93,106.93,0,0,1-.7,11.85H136a19,19,0,0,1,7.79-7.24,25.15,25.15,0,0,1,11.64-2.57q23.46,0,23.46,23.64Z"/><path class="cls-1" d="M197.19,21.39a7.6,7.6,0,0,1,2-5.66,7.86,7.86,0,0,1,5.75-2,7.68,7.68,0,0,1,5.63,2,7.6,7.6,0,0,1,2,5.66,7.45,7.45,0,0,1-2,5.51,7.58,7.58,0,0,1-5.63,2,7.75,7.75,0,0,1-5.75-2A7.45,7.45,0,0,1,197.19,21.39ZM211.72,103H198V38.49h13.72Z"/><path class="cls-1" d="M255.37,93.11a33.42,33.42,0,0,0,10-1.57v10.32a27.44,27.44,0,0,1-5.87,1.67,41,41,0,0,1-7.44.67q-19.48,0-19.49-20.54V48.88H223.8V42.81l9.45-5,4.67-13.66h8.46V38.49h18.38V48.88H246.38V83.42q0,5,2.48,7.33A9.07,9.07,0,0,0,255.37,93.11Z"/><path class="cls-1" d="M306.49,104.2q-15.06,0-23.55-8.78t-8.49-24.19q0-15.83,7.88-24.86t21.65-9q12.78,0,20.19,7.76t7.41,21.36v7.41h-43q.3,9.41,5.08,14.45t13.48,5a49.15,49.15,0,0,0,10.65-1.08,55.12,55.12,0,0,0,10.59-3.58V99.82a41.79,41.79,0,0,1-10.15,3.39A62.41,62.41,0,0,1,306.49,104.2ZM304,47.71a13.8,13.8,0,0,0-10.48,4.14q-3.93,4.15-4.69,12.08H318.1q-.12-8-3.85-12.11T304,47.71Z"/><path class="cls-2" d="M415.91,103h-14V64.57H362.57V103H348.62V17.71h13.95v34.9H401.9V17.71h14Z"/><path class="cls-2" d="M477.3,103l-2.74-9h-.47q-4.66,5.89-9.4,8a29.67,29.67,0,0,1-12.13,2.13q-9.53,0-14.86-5.14t-5.34-14.53q0-10,7.42-15t22.58-5.55l11.15-.35V60.14q0-6.18-2.89-9.25t-9-3.06a31,31,0,0,0-9.51,1.45,73.82,73.82,0,0,0-8.76,3.45L439,42.92a48.28,48.28,0,0,1,11.5-4.17,53,53,0,0,1,11.78-1.43q12.31,0,18.59,5.37t6.27,16.87V103Zm-20.43-9.34q7.47,0,12-4.17t4.52-11.7v-5.6l-8.29.35q-9.69.34-14.09,3.24t-4.41,8.84a8.62,8.62,0,0,0,2.57,6.68C450.88,92.91,453.45,93.69,456.87,93.69Z"/><path class="cls-2" d="M570.55,103h-16l-21.35-34.9L511.61,103H496.67L525,58.8l-26.5-41.09H514L533.73,50l19.73-32.28h15L541.84,59Z"/><circle class="cls-3" cx="594.29" cy="26.5" r="25"/><path class="cls-2" d="M589.94,26.59V38h-4.67V9.44h8.07q5.52,0,8.18,2.07t2.66,6.25q0,5.34-5.55,7.6L606.7,38h-5.32l-6.83-11.41Zm0-3.87h3.24c2.18,0,3.75-.4,4.73-1.21a4.4,4.4,0,0,0,1.46-3.59,3.85,3.85,0,0,0-1.58-3.48,8.68,8.68,0,0,0-4.76-1h-3.09Z"/></g></g></svg>