<svg xmlns="http://www.w3.org/2000/svg" viewBox="0 0 358 60.82"><defs><style>.cls-1{fill:#fff;}.cls-2{fill:#fe0000;}.cls-3{fill:none;stroke:#fe0000;stroke-miterlimit:10;stroke-width:3px;}</style></defs><g id="Layer_2" data-name="Layer 2"><g id="Layer_5" data-name="Layer 5"><path class="cls-1" d="M50.82,60.15H42.18l-8.24-29c-.35-1.26-.79-3.09-1.32-5.47s-.86-4-1-5q-.33,2.13-1.08,5.52c-.49,2.26-.91,4-1.24,5.06l-8,28.87H12.65L6.38,35.8,0,11.52H8.1l7,28.34a122.22,122.22,0,0,1,2.32,12q.36-2.82,1.1-6.32c.48-2.33.93-4.21,1.33-5.66l7.9-28.4h7.87l8.11,28.54A107.32,107.32,0,0,1,46.13,51.9a87.17,87.17,0,0,1,2.4-12.11l6.9-28.27h8Z"/><path class="cls-1" d="M101.83,60.15H94V37.53q0-4.26-1.71-6.35t-5.44-2.1q-4.91,0-7.22,2.94c-1.54,2-2.31,5.25-2.31,9.87V60.15h-7.8V8.39h7.8V21.53a60.23,60.23,0,0,1-.4,6.75h.5a10.78,10.78,0,0,1,4.44-4.12,14.2,14.2,0,0,1,6.62-1.47q13.35,0,13.35,13.48Z"/><path class="cls-1" d="M112.23,13.61a4.32,4.32,0,0,1,1.15-3.23,4.46,4.46,0,0,1,3.27-1.13,4.37,4.37,0,0,1,3.2,1.13A4.32,4.32,0,0,1,121,13.61a4.21,4.21,0,0,1-1.15,3.14,4.3,4.3,0,0,1-3.2,1.15,4.39,4.39,0,0,1-3.27-1.15A4.21,4.21,0,0,1,112.23,13.61Zm8.27,46.54h-7.8V23.36h7.8Z"/><path class="cls-1" d="M145.34,54.5a19,19,0,0,0,5.72-.9v5.88a15.43,15.43,0,0,1-3.34,1,22.51,22.51,0,0,1-4.24.39q-11.08,0-11.09-11.71V29.28h-5V25.82L132.76,23l2.65-7.79h4.82v8.19h10.46v5.92H140.23V49a5.54,5.54,0,0,0,1.41,4.18A5.14,5.14,0,0,0,145.34,54.5Z"/><path class="cls-1" d="M174.44,60.82q-8.56,0-13.4-5T156.21,42q0-9,4.48-14.17T173,22.69q7.28,0,11.49,4.43t4.22,12.17v4.23H164.24c.11,3.57,1.08,6.31,2.89,8.23s4.38,2.88,7.68,2.88a28.34,28.34,0,0,0,6.06-.62,32,32,0,0,0,6-2v6.35a24.25,24.25,0,0,1-5.78,1.93A35.18,35.18,0,0,1,174.44,60.82ZM173,28.61a7.81,7.81,0,0,0-6,2.37,11.23,11.23,0,0,0-2.67,6.88h16.67Q181,33.3,178.86,31A7.52,7.52,0,0,0,173,28.61Z"/><path class="cls-2" d="M236.72,60.15h-8V38.23H206.36V60.15h-7.94V11.52h7.94V31.41h22.38V11.52h8Z"/><path class="cls-2" d="M271.66,60.15,270.1,55h-.27a15,15,0,0,1-5.35,4.57,16.84,16.84,0,0,1-6.91,1.22q-5.4,0-8.45-2.93c-2-2-3-4.71-3-8.29A9.74,9.74,0,0,1,250.3,41q4.22-2.9,12.85-3.16l6.35-.2v-2a7.42,7.42,0,0,0-1.65-5.27q-1.64-1.75-5.09-1.75a17.75,17.75,0,0,0-5.42.83,40.3,40.3,0,0,0-5,2l-2.52-5.59a26.61,26.61,0,0,1,6.54-2.38,29.67,29.67,0,0,1,6.71-.82q7,0,10.58,3.06t3.57,9.62V60.15ZM260,54.83a9.65,9.65,0,0,0,6.83-2.38,8.66,8.66,0,0,0,2.57-6.67V42.59l-4.71.2c-3.68.13-6.35.74-8,1.84a5.62,5.62,0,0,0-2.5,5,4.91,4.91,0,0,0,1.46,3.81A6.24,6.24,0,0,0,260,54.83Z"/><path class="cls-2" d="M324.73,60.15H315.6L303.44,40.26,291.19,60.15h-8.51l16.11-25.22L283.71,11.52h8.84l11.22,18.39L315,11.52h8.57L308.39,35.07Z"/><ellipse class="cls-3" cx="341.5" cy="16.52" rx="15" ry="15.02"/><path class="cls-2" d="M338.89,16.58v6.85h-2.8V6.27h4.84a7.93,7.93,0,0,1,4.91,1.25,4.48,4.48,0,0,1,1.6,3.75q0,3.21-3.33,4.57L349,23.43h-3.19l-4.1-6.85Zm0-2.33h1.95a4.45,4.45,0,0,0,2.83-.72,2.64,2.64,0,0,0,.88-2.16,2.31,2.31,0,0,0-.95-2.09,5.11,5.11,0,0,0-2.86-.64h-1.85Z"/></g></g></svg>