<svg xmlns="http://www.w3.org/2000/svg" viewBox="0 0 824.99 132.21"><defs><style>.cls-1{fill:#fff;}.cls-2{fill:#fe0000;}.cls-3{fill:none;stroke:#fe0000;stroke-miterlimit:10;stroke-width:3px;}</style></defs><g id="Layer_2" data-name="Layer 2"><g id="Layer_1-2" data-name="Layer 1"><path class="cls-1" d="M121.47,130.62H100.83L81.14,61.39Q79.87,56.86,78,48.33c-1.28-5.69-2-9.65-2.31-11.87q-.8,5.09-2.58,13.18t-3,12.07L50.89,130.62H30.25l-15-58.11L0,14.55H19.37L36,82.19a292.66,292.66,0,0,1,5.55,28.74q.87-6.75,2.62-15.08t3.18-13.5l18.89-67.8H85L104.4,82.67q2.79,9.45,5.88,28.26A206.33,206.33,0,0,1,116,82l16.51-67.48h19.21Z"/><path class="cls-1" d="M243.42,130.62H224.69v-54q0-10.16-4.09-15.16t-13-5q-11.76,0-17.27,7T184.83,87v43.59H166.17V7.08h18.66V38.44a147.54,147.54,0,0,1-1,16.12h1.19a25.9,25.9,0,0,1,10.6-9.84,34.12,34.12,0,0,1,15.84-3.5q31.91,0,31.91,32.16Z"/><path class="cls-1" d="M268.27,19.55c0-3.34.92-5.9,2.74-7.7s4.44-2.7,7.82-2.7,5.84.9,7.66,2.7,2.74,4.36,2.74,7.7a10.1,10.1,0,0,1-2.74,7.5c-1.82,1.83-4.38,2.74-7.66,2.74s-6-.91-7.82-2.74A10.14,10.14,0,0,1,268.27,19.55ZM288,130.62H269.39V42.81H288Z"/><path class="cls-1" d="M347.43,117.12A45.41,45.41,0,0,0,361.09,115v14a37.89,37.89,0,0,1-8,2.27,55.81,55.81,0,0,1-10.13.91q-26.5,0-26.51-27.95V56.94h-12V48.69l12.86-6.83,6.35-18.58H335.2V42.81h25V56.94h-25v47q0,6.75,3.38,10A12.31,12.31,0,0,0,347.43,117.12Z"/><path class="cls-1" d="M417,132.21q-20.49,0-32-12T373.39,87.35q0-21.51,10.72-33.82t29.46-12.31Q431,41.22,441,51.78t10.08,29.06V90.92H392.6q.4,12.8,6.91,19.65t18.34,6.87A67.62,67.62,0,0,0,432.34,116a75.66,75.66,0,0,0,14.41-4.88v15.17a57.33,57.33,0,0,1-13.81,4.6A84.74,84.74,0,0,1,417,132.21Zm-3.41-76.85q-8.9,0-14.26,5.63t-6.39,16.44h39.86q-.16-10.87-5.24-16.48T413.57,55.36Z"/><path class="cls-2" d="M565.84,130.62H546.79V78.3H493.28v52.32h-19V14.55h19V62h53.51V14.55h19.05Z"/><path class="cls-2" d="M649.37,130.62l-3.73-12.22H645q-6.35,8-12.78,10.91t-16.52,2.9q-12.93,0-20.2-7t-7.27-19.77q0-13.58,10.09-20.48T629,77.43L644.21,77V72.27q0-8.41-3.93-12.59t-12.19-4.17a42.23,42.23,0,0,0-12.94,2,98.54,98.54,0,0,0-11.91,4.68l-6-13.33a65.05,65.05,0,0,1,15.65-5.68,71.71,71.71,0,0,1,16-2q16.75,0,25.29,7.31t8.53,22.94v59.15Zm-27.79-12.7q10.15,0,16.31-5.68t6.16-15.92V88.7l-11.28.48q-13.17.48-19.17,4.4t-6,12q0,5.88,3.5,9.09T621.58,117.92Z"/><path class="cls-2" d="M776.24,130.62H754.4l-29-47.48-29.3,47.48H675.73l38.5-60.18-36-55.89h21.12l26.83,43.9L753,14.55h20.48L737.18,70.76Z"/><circle class="cls-3" cx="798.49" cy="26.5" r="25"/><path class="cls-2" d="M794.15,26.59V38h-4.67V9.44h8.07q5.52,0,8.18,2.07a7.45,7.45,0,0,1,2.66,6.25q0,5.34-5.55,7.6L810.9,38h-5.31l-6.83-11.41Zm0-3.87h3.24c2.17,0,3.75-.4,4.73-1.21a4.4,4.4,0,0,0,1.46-3.59A3.87,3.87,0,0,0,802,14.44a8.72,8.72,0,0,0-4.77-1h-3.08Z"/></g></g></svg>