<svg xmlns="http://www.w3.org/2000/svg" viewBox="0 0 50.62 42"><defs><style>.cls-1{fill:#fff;}</style></defs><g id="Layer_2" data-name="Layer 2"><g id="Layer_3" data-name="Layer 3"><path class="cls-1" d="M50.62,6.43v0A6.41,6.41,0,0,0,44.26,0H6.35A6.41,6.41,0,0,0,0,6.39V35.54A6.41,6.41,0,0,0,6.35,42H44.26a6.42,6.42,0,0,0,6.36-6.46ZM6.35,3.23H44.26a3.15,3.15,0,0,1,3,2.47l-22,15.74L3.32,5.7A3.15,3.15,0,0,1,6.35,3.23ZM44.26,38.77H6.35a3.18,3.18,0,0,1-3.12-3.23V9.61L24.37,24.74a1.62,1.62,0,0,0,1.88,0L47.38,9.61V35.54A3.17,3.17,0,0,1,44.26,38.77Z"/></g></g></svg>