<svg xmlns="http://www.w3.org/2000/svg" viewBox="0 0 49.34 50"><defs><style>.cls-1{fill:#fff;}</style></defs><g id="Layer_2" data-name="Layer 2"><g id="Layer_15" data-name="Layer 15"><path class="cls-1" d="M25,26.67a10,10,0,1,1,10-10A10,10,0,0,1,25,26.67ZM25,10a6.67,6.67,0,1,0,6.67,6.67A6.67,6.67,0,0,0,25,10Z"/><path class="cls-1" d="M25,50A25,25,0,0,1,5.68,40.85l-.86-1.07.86-1.05a25,25,0,0,1,35.19-3.44,25.49,25.49,0,0,1,3.45,3.44l.86,1.05-.86,1.07A25,25,0,0,1,25,50ZM9.18,39.8a21.68,21.68,0,0,0,30.63,1c.36-.33.7-.68,1-1a21.67,21.67,0,0,0-30.62-1C9.87,39.09,9.52,39.44,9.18,39.8Z"/><path class="cls-1" d="M25,50A25,25,0,1,1,47.63,14.38a1.66,1.66,0,0,1-.77,2.23l-.13.06h0a1.67,1.67,0,0,1-2.1-.79A21.61,21.61,0,1,0,46,30.3a1.67,1.67,0,0,1,2-1.2h0A1.67,1.67,0,0,1,49.32,31a.83.83,0,0,1,0,.15A25,25,0,0,1,25,50Z"/><circle class="cls-1" cx="28.23" cy="39.8" r="1.67"/><circle class="cls-1" cx="21.77" cy="39.8" r="1.67"/></g></g></svg>