<svg xmlns="http://www.w3.org/2000/svg" viewBox="0 0 71.85 71.97"><defs><style>.cls-1{fill:#fff;}</style></defs><g id="Layer_2" data-name="Layer 2"><g id="Layer_5" data-name="Layer 5"><path class="cls-1" d="M60.63,37.11A1.13,1.13,0,0,0,61.75,36,25.83,25.83,0,1,0,35.93,61.85a1.13,1.13,0,0,0,0-2.25A23.62,23.62,0,1,1,59.5,36,1.14,1.14,0,0,0,60.63,37.11Z"/><path class="cls-1" d="M6.17,34.86A1.12,1.12,0,0,0,5.05,36,30.88,30.88,0,1,0,35.93,5.06a1.13,1.13,0,1,0,0,2.25A28.68,28.68,0,1,1,7.3,36,1.13,1.13,0,0,0,6.17,34.86Z"/><path class="cls-1" d="M70.73,34.86A1.12,1.12,0,0,0,69.61,36,33.68,33.68,0,1,1,35.93,2.25a1.12,1.12,0,0,0,1.12-1.13A1.12,1.12,0,0,0,35.93,0,36,36,0,1,0,71.85,36,1.12,1.12,0,0,0,70.73,34.86Z"/><path class="cls-1" d="M35.93,15.74A20.24,20.24,0,1,0,56.13,36,20.22,20.22,0,0,0,35.93,15.74ZM46,37,30.31,46a1.19,1.19,0,0,1-.56.14,1.09,1.09,0,0,1-.56-.15,1.11,1.11,0,0,1-.56-1V27a1.13,1.13,0,0,1,1.13-1.13,1.08,1.08,0,0,1,.55.15L46,35a1.14,1.14,0,0,1,.41,1.54A1.1,1.1,0,0,1,46,37Z"/></g></g></svg>