<svg xmlns="http://www.w3.org/2000/svg" viewBox="0 0 104.19 71.97"><defs><style>.cls-1{fill:#fff;}</style></defs><g id="Layer_2" data-name="Layer 2"><g id="Layer_5" data-name="Layer 5"><path class="cls-1" d="M75.45,7.2H3.59A3.4,3.4,0,0,1,0,3.6,3.4,3.4,0,0,1,3.59,0H75.45A3.4,3.4,0,0,1,79,3.6,3.4,3.4,0,0,1,75.45,7.2Zm28.74,18a3.4,3.4,0,0,0-3.6-3.6h-97A3.4,3.4,0,0,0,0,25.19a3.4,3.4,0,0,0,3.59,3.6h97A3.4,3.4,0,0,0,104.19,25.19ZM66.46,46.78a3.39,3.39,0,0,0-3.59-3.6H3.59a3.6,3.6,0,0,0,0,7.2H62.87A3.39,3.39,0,0,0,66.46,46.78ZM80.83,68.37a3.39,3.39,0,0,0-3.59-3.6H5.39a3.6,3.6,0,0,0,0,7.2H77.24A3.39,3.39,0,0,0,80.83,68.37Z"/></g></g></svg>