<svg xmlns="http://www.w3.org/2000/svg" viewBox="0 0 46.89 48"><defs><style>.cls-1{fill:#fff;}</style></defs><g id="Layer_2" data-name="Layer 2"><g id="Layer_15" data-name="Layer 15"><path class="cls-1" d="M23.45,0a14,14,0,1,1-14,14,14,14,0,0,1,14-14Zm0,4.39A9.64,9.64,0,1,0,33.08,14,9.64,9.64,0,0,0,23.45,4.39Z"/><path class="cls-1" d="M4.36,46.09A2.19,2.19,0,0,1,0,45.53C1.48,35.65,10.18,28.74,20.17,30.3a21.16,21.16,0,0,0,6.55,0c10-1.56,18.7,5.34,20.16,15.23a2.19,2.19,0,0,1-4.35.56C41.38,38.64,35,33.44,27.39,34.63a25.4,25.4,0,0,1-7.88,0c-7.59-1.19-14,4-15.15,11.46Z"/></g></g></svg>